<svg width="24" height="24" viewBox="0 0 24 24" xmlns="http://www.w3.org/2000/svg">
<mask id="mask0_13_656" style="mask-type:alpha" maskUnits="userSpaceOnUse" x="0" y="0" width="24" height="24">
<rect width="24" height="24"/>
</mask>
<g mask="url(#mask0_13_656)">
<path d="M17 23V21.5C18.25 21.5 19.3127 21.0627 20.188 20.188C21.0627 19.3127 21.5 18.25 21.5 17H23C23 18.6667 22.4167 20.0833 21.25 21.25C20.0833 22.4167 18.6667 23 17 23ZM1 7C1 5.33333 1.58333 3.91667 2.75 2.75C3.91667 1.58333 5.33333 1 7 1V2.5C5.75 2.5 4.68733 2.93733 3.812 3.812C2.93733 4.68733 2.5 5.75 2.5 7H1ZM3.4 20.6C2.6 19.8 2 18.8917 1.6 17.875C1.2 16.8583 1 15.8207 1 14.762C1 13.704 1.2 12.6667 1.6 11.65C2 10.6333 2.6 9.725 3.4 8.925L8 4.325C8.23333 4.09167 8.529 3.96667 8.887 3.95C9.24567 3.93333 9.55 4.05 9.8 4.3C10.0333 4.53333 10.15 4.829 10.15 5.187C10.15 5.54567 10.0333 5.84167 9.8 6.075L5.725 10.15C6.39167 10.6833 6.8 11.3957 6.95 12.287C7.1 13.179 6.80833 14 6.075 14.75L6.775 15.45C7.45833 14.8167 7.846 13.975 7.938 12.925C8.02933 11.875 7.75 10.9583 7.1 10.175L14.725 2.55C14.975 2.3 15.271 2.175 15.613 2.175C15.9543 2.175 16.25 2.3 16.5 2.55C16.7333 2.78333 16.8583 3.07067 16.875 3.412C16.8917 3.754 16.7667 4.05833 16.5 4.325L11.025 9.8L11.7 10.5L18.6 3.6C18.8333 3.36667 19.1293 3.25 19.488 3.25C19.846 3.25 20.1417 3.36667 20.375 3.6C20.6083 3.83333 20.725 4.129 20.725 4.487C20.725 4.84567 20.6083 5.14167 20.375 5.375L13.475 12.275L14.2 12.975L20.025 7.15C20.275 6.9 20.571 6.775 20.913 6.775C21.2543 6.775 21.55 6.9 21.8 7.15C22.0333 7.38333 22.15 7.679 22.15 8.037C22.15 8.39567 22.0333 8.69167 21.8 8.925L15.25 15.45L15.95 16.175L20.375 11.75C20.6417 11.4833 20.946 11.3583 21.288 11.375C21.6293 11.3917 21.9167 11.5167 22.15 11.75C22.3833 11.9833 22.5083 12.271 22.525 12.613C22.5417 12.9543 22.4167 13.2583 22.15 13.525L15.075 20.6C14.275 21.4 13.3667 22 12.35 22.4C11.3333 22.8 10.296 23 9.238 23C8.17933 23 7.14167 22.8 6.125 22.4C5.10833 22 4.2 21.4 3.4 20.6Z"/>
</g>
</svg>
