<svg xmlns="http://www.w3.org/2000/svg" xmlns:xlink="http://www.w3.org/1999/xlink" viewBox="0 0 250 250.91">
  <defs>
    <style>.cls-1 {
      fill: url(#Безымянный_градиент_2);
    }

    .cls-2 {
      fill: url(#Безымянный_градиент_4);
    }

    .cls-3 {
      fill: url(#Безымянный_градиент_4-2);
    }

    .cls-4 {
      fill: url(#Безымянный_градиент_4-3);
    }

    .cls-5 {
      fill: url(#Безымянный_градиент_4-4);
    }

    .cls-6 {
      fill: url(#Безымянный_градиент_4-5);
    }

    .cls-7 {
      fill: url(#Безымянный_градиент_4-6);
    }

    .cls-8 {
      fill: url(#Безымянный_градиент_4-7);
    }

    .cls-9 {
      fill: url(#Безымянный_градиент_4-8);
    }

    .cls-10 {
      fill: url(#Безымянный_градиент_4-9);
    }

    .cls-11 {
      fill: url(#Безымянный_градиент_2-2);
    }

    .cls-12 {
      fill: url(#Безымянный_градиент_2-3);
    }

    .cls-13 {
      fill: url(#Безымянный_градиент_2-4);
    }

    .cls-14 {
      fill: url(#Безымянный_градиент_2-5);
    }

    .cls-15 {
      fill: url(#Безымянный_градиент_2-6);
    }

    .cls-16 {
      fill: #4a403e;
    }</style>
    <linearGradient id="Безымянный_градиент_2" x1="188.19" y1="16.79" x2="62.72" y2="234.12"
                    gradientUnits="userSpaceOnUse">
      <stop offset="0" stop-color="#fc9f1a"/>
      <stop offset="1" stop-color="#ff3419"/>
    </linearGradient>
    <linearGradient id="Безымянный_градиент_4" x1="28.17" y1="181.6" x2="180.04" y2="181.6"
                    gradientUnits="userSpaceOnUse">
      <stop offset="0.73" stop-color="#fff"/>
      <stop offset="1" stop-color="#d5d3ca"/>
    </linearGradient>
    <linearGradient id="Безымянный_градиент_4-2" x1="36.87" y1="166.66" x2="171.3" y2="166.66"
                    xlink:href="#Безымянный_градиент_4"/>
    <linearGradient id="Безымянный_градиент_4-3" x1="45.56" y1="151.73" x2="162.56" y2="151.73"
                    xlink:href="#Безымянный_градиент_4"/>
    <linearGradient id="Безымянный_градиент_4-4" x1="127.39" y1="18.95" x2="52.34" y2="148.93"
                    xlink:href="#Безымянный_градиент_4"/>
    <linearGradient id="Безымянный_градиент_4-5" x1="144.75" y1="48.62" x2="86.86" y2="148.88"
                    xlink:href="#Безымянный_градиент_4"/>
    <linearGradient id="Безымянный_градиент_4-6" x1="136.08" y1="33.76" x2="69.61" y2="148.91"
                    xlink:href="#Безымянный_градиент_4"/>
    <linearGradient id="Безымянный_градиент_4-7" x1="185.53" y1="185.76" x2="127.48" y2="85.21"
                    xlink:href="#Безымянный_градиент_4"/>
    <linearGradient id="Безымянный_градиент_4-8" x1="202.79" y1="185.78" x2="136.18" y2="70.41"
                    xlink:href="#Безымянный_градиент_4"/>
    <linearGradient id="Безымянный_градиент_4-9" x1="220.05" y1="185.8" x2="144.88" y2="55.6"
                    xlink:href="#Безымянный_градиент_4"/>
    <linearGradient id="Безымянный_градиент_2-2" x1="520.18" y1="-22.99" x2="328.17" y2="100.44"
                    xlink:href="#Безымянный_градиент_2"/>
    <linearGradient id="Безымянный_градиент_2-3" x1="535.06" y1="0.17" x2="343.06" y2="123.6"
                    xlink:href="#Безымянный_градиент_2"/>
    <linearGradient id="Безымянный_градиент_2-4" x1="549.87" y1="23.21" x2="357.87" y2="146.64"
                    xlink:href="#Безымянный_градиент_2"/>
    <linearGradient id="Безымянный_градиент_2-5" x1="571.17" y1="56.33" x2="379.17" y2="179.76"
                    xlink:href="#Безымянный_градиент_2"/>
    <linearGradient id="Безымянный_градиент_2-6" x1="590.66" y1="86.65" x2="398.66" y2="210.08"
                    xlink:href="#Безымянный_градиент_2"/>
  </defs>
  <title>Ресурс 26</title>
  <g id="Слой_2" data-name="Слой 2">
    <g id="Слой_1-2" data-name="Слой 1">
      <circle class="cls-1" cx="125.46" cy="125.46" r="125.46"/>
      <path class="cls-2" d="M180,187.67,173,175.54H29.28a8.07,8.07,0,0,0,7,12.13Z"/>
      <path class="cls-3" d="M171.3,172.72l-7.09-12.11H38a8.05,8.05,0,0,0,7,12.11Z"/>
      <path class="cls-4" d="M162.56,157.79l-7.08-12.11H46.67a8.06,8.06,0,0,0,7,12.11Z"/>
      <path class="cls-5" d="M118.44,23.14,46.69,145.67H60.75L132.5,23.14h0A8.15,8.15,0,0,0,118.44,23.14Z"/>
      <path class="cls-6" d="M135.74,52.74,81.31,145.68h14l54.42-92.91h0A8.11,8.11,0,0,0,135.74,52.74Z"/>
      <path class="cls-7" d="M127.11,37.92,64,145.67H78l63.1-107.75h0A8.13,8.13,0,0,0,127.11,37.92Z"/>
      <path class="cls-8" d="M132.43,82.36l-7,12,54.64,93.33h0A8,8,0,0,0,187,175.56Z"/>
      <path class="cls-9" d="M141.08,67.58l-7,12,63.28,108.09h0a8,8,0,0,0,6.95-12.11Z"/>
      <path class="cls-10" d="M149.74,52.79l-7,12,71.93,122.86h0a8.07,8.07,0,0,0,7-12.14Z"/>
    </g>
  </g>
</svg>
