<svg width="131" height="56" viewBox="0 0 131 56" fill="none" xmlns="http://www.w3.org/2000/svg">
<path d="M29.5223 19.6112L21.9967 32.5114H35.3636L28.6801 21.0506L29.5223 19.6112Z" fill="white"/>
<path d="M28.6895 1.4455e-06C23.1731 1.7313e-06 17.7806 1.64266 13.194 4.72024C8.60743 7.79781 5.03278 12.172 2.92216 17.2897C0.811539 22.4074 0.259759 28.0386 1.3366 33.4712C2.41345 38.9038 5.07055 43.8937 8.97185 47.8098C12.8732 51.726 17.8434 54.3924 23.254 55.472C28.6646 56.5515 34.2725 55.9957 39.3685 53.8747C44.4645 51.7537 48.8196 48.1629 51.8831 43.5564C54.9465 38.9499 56.5807 33.5347 56.5789 27.9955C56.5789 24.3183 55.8575 20.6772 54.4558 17.28C53.0541 13.8829 50.9996 10.7963 48.4097 8.19651C45.8199 5.59677 42.7453 3.53483 39.3616 2.12845C35.978 0.722073 32.3516 -0.00118017 28.6895 1.4455e-06ZM27.1306 5.1637C27.2862 4.88465 27.5131 4.65231 27.7879 4.49058C28.0627 4.32886 28.3755 4.24361 28.694 4.24361C29.0125 4.24361 29.3252 4.32886 29.6 4.49058C29.8748 4.65231 30.1017 4.88465 30.2573 5.1637L14.3103 32.5115H11.1836L27.1306 5.1637ZM40.829 41.8853L40.2735 40.9407L40.829 41.8853H8.87214C8.55777 41.885 8.24901 41.8016 7.97688 41.6436C7.70474 41.4855 7.47881 41.2584 7.32177 40.9849C7.16472 40.7114 7.08209 40.4013 7.08217 40.0856C7.08225 39.77 7.16504 39.4599 7.32223 39.1865H39.2432L38.8759 38.5568H10.7983C10.484 38.5565 10.1752 38.4731 9.90307 38.315C9.63093 38.157 9.405 37.9298 9.24796 37.6564C9.09091 37.3829 9.00828 37.0728 9.00836 36.7571C9.00844 36.4415 9.09123 36.1314 9.24841 35.858H37.3081L36.9407 35.2283H12.7514C12.437 35.2279 12.1283 35.1446 11.8561 34.9865C11.584 34.8285 11.3581 34.6013 11.201 34.3279C11.044 34.0544 10.9613 33.7443 10.9614 33.4286C10.9615 33.1129 11.0443 32.8029 11.2015 32.5295H15.0539L29.0568 8.46522C29.2131 8.18833 29.4397 7.95802 29.7136 7.79778C29.9874 7.63755 30.2987 7.55312 30.6157 7.55312C30.9326 7.55312 31.2439 7.63755 31.5178 7.79778C31.7916 7.95802 32.0183 8.18833 32.1745 8.46522L18.1537 32.5115H18.8794L30.974 11.7667C31.1303 11.4899 31.3569 11.2595 31.6308 11.0993C31.9047 10.9391 32.2159 10.8546 32.5329 10.8546C32.8499 10.8546 33.1612 10.9391 33.435 11.0993C33.7089 11.2595 33.9355 11.4899 34.0918 11.7667L30.2394 18.3698L42.3699 39.1775C42.529 39.4505 42.6135 39.7607 42.6152 40.0769C42.6168 40.3931 42.5353 40.7042 42.3791 40.9788C42.2228 41.2533 41.9973 41.4817 41.7251 41.6408C41.453 41.8 41.1439 41.8843 40.829 41.8853ZM44.6724 41.8853L30.6067 17.7581L32.1656 15.0593L46.2133 39.1775C46.371 39.4478 46.4556 39.7548 46.4588 40.068C46.462 40.3813 46.3837 40.6899 46.2317 40.9634C46.0796 41.237 45.8591 41.4659 45.5919 41.6276C45.3247 41.7893 45.0201 41.8781 44.7082 41.8853H44.6724ZM48.5158 41.8853L32.5239 14.4565L34.0918 11.7578L50.0836 39.1685C50.2439 39.4434 50.3285 39.7561 50.329 40.0747C50.3294 40.3932 50.2456 40.7062 50.0862 40.9815C49.9267 41.2569 49.6973 41.4849 49.4214 41.6421C49.1455 41.7993 48.833 41.8801 48.5158 41.8763V41.8853Z" fill="white"/>
<path d="M68.6015 28.0225L67.7773 32.2416H64.3102L67.8938 15.6261C68.0087 15.0945 68.3018 14.6187 68.7242 14.2781C69.1465 13.9375 69.6725 13.7528 70.2142 13.7549H72.5883L76.1719 32.2416H72.7048L71.9074 28.0225H68.6015ZM71.5849 25.1888L70.9846 21.3205C70.7965 20.187 70.5546 18.3249 70.3844 17.1194H70.3038C70.1156 18.3518 69.8379 20.25 69.6497 21.3205L68.9599 25.1888H71.5849Z" fill="white"/>
<path d="M88.9565 13.7549V32.2416H85.3729V16.8765H82.6852V21.7613C82.6852 26.0164 82.4164 29.8577 80.096 31.6569C79.3899 32.229 78.5126 32.5459 77.6054 32.5565L76.8439 29.5069C77.2973 29.3986 77.7182 29.1827 78.0713 28.8771C79.1643 27.7526 79.3793 25.6926 79.3793 22.1032V13.7549H88.9565Z" fill="white"/>
<path d="M95.6758 13.7549V20.6908C96.1551 20.6091 96.641 20.573 97.1271 20.5828C100.621 20.5828 102.861 22.7239 102.861 26.2323C102.898 26.9957 102.781 27.7587 102.518 28.4758C102.254 29.1929 101.85 29.8495 101.329 30.4064C100.075 31.7199 98.0768 32.4125 95.4518 32.4125C94.3366 32.4287 93.222 32.3534 92.119 32.1876V13.7549H95.6758ZM95.6758 29.4439C95.9 29.4876 96.1284 29.5057 96.3566 29.4979C98.1484 29.4979 99.116 28.1035 99.116 26.4302C99.116 24.757 98.2201 23.4615 96.491 23.4615C96.2171 23.4576 95.9436 23.4848 95.6758 23.5425V29.4439Z" fill="white"/>
<path d="M113.182 13.0891V14.4925C116.496 14.9333 119.005 17.5421 119.005 22.8588C119.005 28.5172 116.47 30.9012 113.182 31.3959V32.9073H110.019V31.3959C106.686 30.9012 104.196 28.5172 104.196 22.9127C104.196 17.5151 107.17 14.9333 110.019 14.4925V13.0891H113.182ZM110.046 17.0923C108.953 17.4162 107.779 18.8915 107.779 22.9577C107.779 26.799 108.926 28.5082 110.046 28.7511V17.0923ZM113.155 28.7871C114.337 28.5172 115.43 27.0599 115.43 22.8857C115.43 18.7116 114.167 17.3442 113.155 17.1283V28.7871Z" fill="white"/>
<path d="M123.762 28.0225L122.938 32.2416H119.471L123.458 13.7549H127.749L130.831 29.6868C130.892 29.9962 130.884 30.3154 130.807 30.6213C130.73 30.9272 130.587 31.2122 130.387 31.4557C130.187 31.6993 129.936 31.8953 129.652 32.0296C129.368 32.164 129.058 32.2333 128.743 32.2326H127.848L127.059 28.0135L123.762 28.0225ZM126.737 25.1888L126.136 21.3205C125.948 20.187 125.697 18.3248 125.536 17.1194H125.455C125.258 18.3518 124.99 20.25 124.801 21.3205L124.112 25.1888H126.737Z" fill="white"/>
<path d="M67.4548 37.5762V38.6017H65.5017V39.8971C65.6615 39.8688 65.8233 39.8538 65.9855 39.8522C66.4695 39.8409 66.9409 40.0072 67.3115 40.32C67.5115 40.4983 67.6692 40.7193 67.7731 40.9668C67.877 41.2143 67.9243 41.482 67.9117 41.7503C67.9244 42.0115 67.885 42.2726 67.7958 42.5182C67.7065 42.7638 67.5693 42.9891 67.3921 43.1807C67.1271 43.4195 66.8165 43.6016 66.4792 43.716C66.1419 43.8305 65.785 43.8748 65.4301 43.8464C65.0551 43.8531 64.6803 43.826 64.3102 43.7654V37.5762H67.4548ZM65.5107 42.8208C65.6698 42.8559 65.8352 42.8503 65.9917 42.8048C66.1481 42.7592 66.2908 42.675 66.4066 42.56C66.5603 42.352 66.6421 42.0993 66.6395 41.8403C66.6445 41.5795 66.559 41.3251 66.3976 41.1206C66.3162 41.0323 66.2179 40.9614 66.1086 40.9119C65.9994 40.8625 65.8814 40.8355 65.7615 40.8327C65.6692 40.8225 65.5761 40.8225 65.4838 40.8327L65.5107 42.8208Z" fill="white"/>
<path d="M69.6946 37.5762V38.9436C69.6946 40.0861 69.6229 41.1476 69.5781 41.7953C69.7484 41.2645 70.0619 40.4459 70.2501 39.9961L71.146 37.5942H72.23V43.7834H71.2087V42.371C71.2087 41.1296 71.2087 40.212 71.2893 39.5913C71.112 40.2017 70.9026 40.8022 70.6622 41.3905L69.7663 43.7474H68.6375V37.5762H69.6946Z" fill="white"/>
<path d="M73.0363 37.855C73.4526 37.6143 73.9267 37.493 74.407 37.5042C74.6222 37.476 74.8408 37.4943 75.0484 37.5578C75.2559 37.6214 75.4475 37.7287 75.6104 37.8727C75.7733 38.0166 75.9036 38.1939 75.9928 38.3925C76.0819 38.5912 76.1277 38.8066 76.1271 39.0245C76.1398 39.3501 76.0435 39.6706 75.8535 39.9348C75.6635 40.199 75.3908 40.3916 75.0789 40.4819C75.4373 40.5414 75.7607 40.7329 75.986 41.0191C76.2113 41.3052 76.3223 41.6653 76.2974 42.0292C76.2876 42.2918 76.2245 42.5497 76.1117 42.7869C75.999 43.0241 75.839 43.2356 75.6418 43.4084C75.4445 43.5811 75.2142 43.7115 74.9648 43.7915C74.7155 43.8715 74.4525 43.8993 74.192 43.8734C73.758 43.8794 73.3286 43.784 72.9377 43.5945L73.1169 42.6139C73.4111 42.7742 73.7408 42.8578 74.0755 42.8568C74.1998 42.8681 74.325 42.8532 74.4432 42.813C74.5614 42.7729 74.6699 42.7084 74.7618 42.6237C74.8538 42.5391 74.9271 42.436 74.977 42.3213C75.027 42.2065 75.0526 42.0825 75.0521 41.9572C75.0521 41.2645 74.4876 40.9946 73.8426 40.9946H73.6634V40.095H73.7888C74.3264 40.095 74.8818 39.8252 74.8818 39.2674C74.888 39.1654 74.8716 39.0632 74.8339 38.9683C74.7961 38.8734 74.7378 38.7881 74.6633 38.7184C74.5888 38.6488 74.4999 38.5965 74.4029 38.5655C74.3059 38.5344 74.2033 38.5253 74.1024 38.5387C73.7861 38.5447 73.477 38.6348 73.2065 38.7996L73.0363 37.855Z" fill="white"/>
<path d="M78.2325 37.5762V40.0591H79.4868V37.5762H80.6873V43.7654H79.4868V41.1746H78.2325V43.7654H77.032V37.5762H78.2325Z" fill="white"/>
<path d="M84.3515 41.0486H82.9449V42.7219H84.5307V43.7654H81.7444V37.5762H84.4321V38.6197H82.9449V40.0501H84.3515V41.0486Z" fill="white"/>
<path d="M88.3114 43.6755C88.0252 43.7835 87.7211 43.8354 87.4155 43.8284C85.8297 43.8284 85.0771 42.533 85.0771 40.7608C85.0771 38.4308 86.3672 37.5222 87.5678 37.5222C87.8548 37.5031 88.1418 37.5589 88.4009 37.6842L88.177 38.6827C88.0035 38.6007 87.8132 38.5606 87.6215 38.5658C86.9406 38.5658 86.3225 39.1595 86.3225 40.6888C86.3225 42.2181 86.8869 42.7489 87.6215 42.7489C87.8158 42.7445 88.0086 42.7143 88.1949 42.6589L88.3114 43.6755Z" fill="white"/>
<path d="M91.0976 38.6827H90.0046V37.5762H93.3911V38.6827H92.2981V43.7654H91.0976V38.6827Z" fill="white"/>
<path d="M96.6701 41.0486H95.2725V42.7219H96.8583V43.7654H94.072V37.5762H96.7597V38.6197H95.2725V40.0501H96.6701V41.0486Z" fill="white"/>
<path d="M99.6266 43.7654L99.2414 42.6319C99.1159 42.2721 99.0084 41.9212 98.9099 41.5254C98.8113 41.9212 98.7128 42.2991 98.6232 42.6499L98.2917 43.7654H97.1091L98.2559 40.5988L97.1539 37.5762H98.3992L98.7576 38.7277C98.8561 39.0425 98.9457 39.3664 99.0353 39.7172C99.1339 39.3394 99.2234 39.0425 99.3041 38.7007L99.6176 37.5762H100.809L99.6624 40.6528L100.881 43.7654H99.6266Z" fill="white"/>
<path d="M102.565 37.5762V40.0591H103.837V37.5762H105.038V43.7654H103.837V41.1746H102.583V43.7654H101.383V37.5762H102.565Z" fill="white"/>
<path d="M109.723 40.5629C109.723 42.8929 108.899 43.8464 107.726 43.8464C106.328 43.8464 105.781 42.3531 105.781 40.6529C105.781 38.9526 106.444 37.5043 107.824 37.5043C109.204 37.5043 109.723 39.1505 109.723 40.5629ZM107.036 40.6709C107.036 42.0742 107.296 42.7939 107.779 42.7939C108.263 42.7939 108.487 41.8943 108.487 40.6169C108.487 39.5284 108.326 38.5478 107.77 38.5478C107.215 38.5478 107.027 39.3395 107.027 40.6709H107.036Z" fill="white"/>
<path d="M113.871 37.5762V43.7654H112.671V38.6197H111.775V40.257C111.775 41.6873 111.685 42.9558 110.879 43.5675C110.643 43.7594 110.35 43.867 110.046 43.8734L109.786 42.8478C109.938 42.8142 110.08 42.7431 110.198 42.6409C110.566 42.2631 110.637 41.5704 110.637 40.3649V37.5762H113.871Z" fill="white"/>
<path d="M118.584 40.5629C118.584 42.8929 117.76 43.8464 116.586 43.8464C115.179 43.8464 114.633 42.3531 114.633 40.6529C114.633 38.9526 115.305 37.5043 116.676 37.5043C118.046 37.5043 118.584 39.1505 118.584 40.5629ZM115.896 40.6709C115.896 42.0742 116.165 42.7939 116.649 42.7939C117.132 42.7939 117.356 41.8943 117.356 40.6169C117.356 39.5284 117.186 38.5478 116.64 38.5478C116.093 38.5478 115.878 39.3395 115.878 40.6709H115.896Z" fill="white"/>
<path d="M122.177 37.5762V38.6197H120.537V43.7654H119.345V37.5762H122.177Z" fill="white"/>
<path d="M123.879 37.5762V38.9436C123.879 40.0861 123.807 41.1476 123.762 41.7953C123.941 41.2645 124.246 40.4459 124.434 39.9961L125.33 37.5942H126.423V43.7834H125.366V42.371C125.366 41.1296 125.411 40.212 125.447 39.5913C125.303 40.14 125.025 40.8867 124.828 41.3905L123.932 43.7474H122.822V37.5762H123.879Z" fill="white"/>
<path d="M128.582 37.5762V38.9436C128.582 40.0861 128.511 41.1476 128.466 41.7953C128.636 41.2645 128.95 40.4459 129.129 39.9961L130.025 37.5942H131.118V43.7834H130.087V42.371C130.087 41.1296 130.141 40.212 130.177 39.5913C130.025 40.14 129.756 40.8867 129.55 41.3905L128.654 43.7474H127.543V37.5762H128.582Z" fill="white"/>
</svg>
