<svg width="24" height="24" viewBox="0 0 24 24" fill="none" xmlns="http://www.w3.org/2000/svg">
<mask id="mask0_13_713" style="mask-type:alpha" maskUnits="userSpaceOnUse" x="0" y="0" width="24" height="24">
<rect width="24" height="24" fill="#D9D9D9"/>
</mask>
<g mask="url(#mask0_13_713)">
<path d="M6 11C5.45 11 4.97933 10.804 4.588 10.412C4.196 10.0207 4 9.55 4 9V4C4 3.45 4.196 2.979 4.588 2.587C4.97933 2.19567 5.45 2 6 2H18C18.55 2 19.021 2.19567 19.413 2.587C19.8043 2.979 20 3.45 20 4V9C20 9.55 19.8043 10.0207 19.413 10.412C19.021 10.804 18.55 11 18 11H6Z" fill="#1C1B1F"/>
<path d="M4 14V21C4 21.5523 4.44771 22 5 22H10.1111C10.6634 22 11.1111 21.5523 11.1111 21V14C11.1111 13.4477 10.6634 13 10.1111 13H5C4.44772 13 4 13.4477 4 14Z" fill="#1C1B1F"/>
<path d="M12.8889 14V21C12.8889 21.5523 13.3366 22 13.8889 22H19C19.5523 22 20 21.5523 20 21V14C20 13.4477 19.5523 13 19 13H13.8889C13.3366 13 12.8889 13.4477 12.8889 14Z" fill="#1C1B1F"/>
</g>
</svg>
