<svg width="24" height="24" viewBox="0 0 24 24" fill="none" xmlns="http://www.w3.org/2000/svg">
<mask id="mask0_13_646" style="mask-type:alpha" maskUnits="userSpaceOnUse" x="0" y="0" width="24" height="24">
<rect width="24" height="24" fill="#D9D9D9"/>
</mask>
<g mask="url(#mask0_13_646)">
<path d="M20.5 23.3L18.2 21H1V19H16.175L15.175 18H4C3.45 18 2.97933 17.8043 2.588 17.413C2.196 17.021 2 16.55 2 16V4.85L0.700001 3.5L2.1 2.1L21.9 21.9L20.5 23.3ZM10 12.85L8.175 11C8.09167 11.15 8.04167 11.3083 8.025 11.475C8.00833 11.6417 8 11.8167 8 12V14H10V12.85ZM20.7 17.85L14.425 11.575L16 10L13 7V9H11.85L5.85 3H20C20.55 3 21.021 3.19567 21.413 3.587C21.8043 3.979 22 4.45 22 5V16C22 16.4333 21.8793 16.8123 21.638 17.137C21.396 17.4623 21.0833 17.7 20.7 17.85Z" fill="#1C1B1F"/>
</g>
</svg>
