<svg width="24" height="24" viewBox="0 0 24 24" fill="none" xmlns="http://www.w3.org/2000/svg">
<mask id="mask0_13_649" style="mask-type:alpha" maskUnits="userSpaceOnUse" x="0" y="0" width="24" height="24">
<rect width="24" height="24" fill="#D9D9D9"/>
</mask>
<g mask="url(#mask0_13_649)">
<path d="M22 17.5L18 13.5V15.175L6.825 4H16C16.55 4 17.021 4.196 17.413 4.588C17.8043 4.97934 18 5.45 18 6V10.5L22 6.5V17.5ZM20.55 23.35L0.650002 3.45L2.05 2.05L21.95 21.95L20.55 23.35ZM4 4L18 18C18 18.55 17.8043 19.021 17.413 19.413C17.021 19.8043 16.55 20 16 20H4C3.45 20 2.97933 19.8043 2.588 19.413C2.196 19.021 2 18.55 2 18V6C2 5.45 2.196 4.97934 2.588 4.588C2.97933 4.196 3.45 4 4 4Z" fill="#1C1B1F"/>
</g>
</svg>
