<svg width="24" height="24" viewBox="0 0 24 24" fill="none" xmlns="http://www.w3.org/2000/svg">
<mask id="mask0_13_711" style="mask-type:alpha" maskUnits="userSpaceOnUse" x="0" y="0" width="24" height="24">
<rect width="24" height="24" fill="#D9D9D9"/>
</mask>
<g mask="url(#mask0_13_711)">
<path d="M3 10.8889C2.44772 10.8889 2 10.4412 2 9.88889V3C2 2.44772 2.44772 2 3 2H9.88889C10.4412 2 10.8889 2.44772 10.8889 3V9.88889C10.8889 10.4412 10.4412 10.8889 9.88889 10.8889H3ZM3 22C2.44772 22 2 21.5523 2 21V14.1111C2 13.5588 2.44772 13.1111 3 13.1111H9.88889C10.4412 13.1111 10.8889 13.5588 10.8889 14.1111V21C10.8889 21.5523 10.4412 22 9.88889 22H3ZM14.1111 10.8889C13.5588 10.8889 13.1111 10.4412 13.1111 9.88889V3C13.1111 2.44772 13.5588 2 14.1111 2H21C21.5523 2 22 2.44772 22 3V9.88889C22 10.4412 21.5523 10.8889 21 10.8889H14.1111ZM14.1111 22C13.5588 22 13.1111 21.5523 13.1111 21V14.1111C13.1111 13.5588 13.5588 13.1111 14.1111 13.1111H21C21.5523 13.1111 22 13.5588 22 14.1111V21C22 21.5523 21.5523 22 21 22H14.1111Z" fill="#1C1B1F"/>
</g>
</svg>
