<svg width="40" height="40" viewBox="0 0 40 40" fill="none" xmlns="http://www.w3.org/2000/svg">
<g clip-path="url(#clip0_16_1055)">
<path fill-rule="evenodd" clip-rule="evenodd" d="M8.88793 3.3229C12.1771 1.15638 16.0441 1.21878e-06 20 1.01759e-06C22.6261 -0.0008308 25.2267 0.508317 27.6532 1.49836C30.0797 2.48841 32.2845 3.93995 34.1417 5.77009C35.999 7.60022 37.4723 9.77309 38.4775 12.1646C39.4826 14.5561 40 17.1193 40 19.7079C40.0013 23.6073 38.8294 27.4195 36.6325 30.6623C34.4357 33.9052 31.3125 36.433 27.6581 37.9261C24.0037 39.4192 19.9822 39.8105 16.1021 39.0505C12.2221 38.2906 8.65784 36.4135 5.86014 33.6566C3.06245 30.8998 1.157 27.387 0.384774 23.5627C-0.387452 19.7383 0.00823979 15.7741 1.5218 12.1714C3.03537 8.56873 5.59881 5.48941 8.88793 3.3229ZM19.3535 3.16123C19.1564 3.27508 18.9937 3.43864 18.8821 3.63508L7.4462 22.8871H9.68841L21.1243 3.63508C21.0127 3.43864 20.85 3.27508 20.653 3.16123C20.4559 3.04738 20.2316 2.98737 20.0032 2.98737C19.7748 2.98737 19.5505 3.04738 19.3535 3.16123ZM5.78864 29.4859H28.7054C28.9313 29.4852 29.1529 29.4259 29.3481 29.3138C29.5433 29.2018 29.705 29.041 29.8171 28.8478C29.9291 28.6545 29.9875 28.4355 29.9863 28.2129C29.9852 27.9903 29.9245 27.7719 29.8105 27.5797L21.1115 12.9318L22.1184 11.2375L21.3749 12.5011L31.4616 29.4859H31.4873C31.711 29.4809 31.9294 29.4183 32.121 29.3045C32.3126 29.1907 32.4708 29.0295 32.5798 28.837C32.6888 28.6444 32.745 28.4271 32.7427 28.2066C32.7404 27.9861 32.6797 27.77 32.5667 27.5797L22.4947 10.6044L22.9952 9.76226L22.7498 10.177L34.2178 29.4859V29.4796C34.4453 29.4823 34.6694 29.4254 34.8672 29.3147C35.0651 29.204 35.2296 29.0436 35.344 28.8497C35.4583 28.6559 35.5184 28.4356 35.5181 28.2113C35.5177 27.9871 35.457 27.7669 35.3421 27.5734L23.8741 8.27709L23.8722 8.28021C23.7602 8.08672 23.5984 7.92574 23.4031 7.81356C23.2067 7.70076 22.9835 7.64133 22.7562 7.64133C22.5289 7.64133 22.3057 7.70076 22.1093 7.81356C21.9129 7.92636 21.7504 8.0885 21.6383 8.28342L12.965 22.8871H12.4446L22.4992 5.95925C22.3871 5.76433 22.2246 5.60219 22.0282 5.48939C21.8318 5.37659 21.6086 5.31716 21.3813 5.31716C21.154 5.31716 20.9308 5.37659 20.7344 5.48939C20.538 5.60219 20.3755 5.76433 20.2634 5.95925L10.2217 22.8997H7.45905C7.34633 23.0922 7.28696 23.3105 7.2869 23.5327C7.28684 23.7549 7.3461 23.9732 7.45872 24.1657C7.57134 24.3582 7.73336 24.5182 7.92851 24.6294C8.12366 24.7407 8.34508 24.7994 8.57052 24.7996H25.9171L26.1805 25.2429H6.05847C5.94575 25.4353 5.88638 25.6536 5.88632 25.8759C5.88626 26.0981 5.94552 26.3164 6.05814 26.5089C6.17076 26.7014 6.33278 26.8613 6.52793 26.9726C6.72309 27.0838 6.9445 27.1425 7.16994 27.1428H27.3049L27.5683 27.5861H4.67717C4.56445 27.7785 4.50508 27.9968 4.50502 28.219C4.50496 28.4412 4.56422 28.6596 4.67684 28.8521C4.78946 29.0446 4.95148 29.2045 5.14663 29.3158C5.34178 29.427 5.56319 29.4857 5.78864 29.4859ZM23.8722 8.28021L22.9952 9.76226L23.8741 8.28342C23.8735 8.28235 23.8729 8.28128 23.8722 8.28021ZM22.4947 10.6044L22.4928 10.6013L22.1184 11.2375L22.4947 10.6044ZM20.0009 14.9739L20.63 13.9643L20 14.9725L20.0009 14.9739ZM15 23L20.0009 14.9739L25 23H15Z"/>
</g>
<defs>
<clipPath id="clip0_16_1055">
<rect width="40" height="40"/>
</clipPath>
</defs>
</svg>
