<svg width="24" height="24" viewBox="0 0 24 24" fill="none" xmlns="http://www.w3.org/2000/svg">
<mask id="mask0_13_712" style="mask-type:alpha" maskUnits="userSpaceOnUse" x="0" y="0" width="24" height="24">
<rect width="24" height="24" fill="#D9D9D9"/>
</mask>
<g mask="url(#mask0_13_712)">
<path d="M6 11C5.45 11 4.97933 10.804 4.588 10.412C4.196 10.0207 4 9.55 4 9V4C4 3.45 4.196 2.979 4.588 2.587C4.97933 2.19567 5.45 2 6 2H18C18.55 2 19.021 2.19567 19.413 2.587C19.8043 2.979 20 3.45 20 4V9C20 9.55 19.8043 10.0207 19.413 10.412C19.021 10.804 18.55 11 18 11H6ZM6 22C5.45 22 4.97933 21.8043 4.588 21.413C4.196 21.021 4 20.55 4 20V15C4 14.45 4.196 13.979 4.588 13.587C4.97933 13.1957 5.45 13 6 13H18C18.55 13 19.021 13.1957 19.413 13.587C19.8043 13.979 20 14.45 20 15V20C20 20.55 19.8043 21.021 19.413 21.413C19.021 21.8043 18.55 22 18 22H6Z" fill="#1C1B1F"/>
</g>
</svg>
