<svg width="100" height="46" viewBox="0 0 100 46" fill="none" xmlns="http://www.w3.org/2000/svg">
<path d="M20.63 17.25L15 26.2857H25L20 18.2582L20.63 17.25Z" fill="#333333"/>
<path d="M20 3.28571C16.0441 3.28571 12.1771 4.4421 8.88793 6.60861C5.59881 8.77512 3.03537 11.8544 1.5218 15.4571C0.0082398 19.0598 -0.387452 23.024 0.384774 26.8484C1.157 30.6728 3.06245 34.1855 5.86014 36.9423C8.65784 39.6992 12.2221 41.5763 16.1021 42.3362C19.9822 43.0962 24.0037 42.7049 27.6581 41.2118C31.3125 39.7187 34.4357 37.1909 36.6325 33.9481C38.8294 30.7052 40.0013 26.893 40 22.9937C40 20.405 39.4826 17.8418 38.4775 15.4503C37.4723 13.0588 35.999 10.8859 34.1417 9.0558C32.2845 7.22566 30.0797 5.77412 27.6532 4.78407C25.2267 3.79403 22.6261 3.28488 20 3.28571ZM18.8821 6.92079C18.9937 6.72435 19.1564 6.56079 19.3535 6.44694C19.5505 6.3331 19.7748 6.27308 20.0032 6.27308C20.2316 6.27308 20.4559 6.3331 20.653 6.44694C20.85 6.56079 21.0127 6.72435 21.1243 6.92079L9.68841 26.1728H7.4462L18.8821 6.92079ZM28.7054 32.7716L28.3071 32.1067L28.7054 32.7716H5.78864C5.56319 32.7714 5.34178 32.7127 5.14663 32.6015C4.95148 32.4902 4.78946 32.3303 4.67684 32.1378C4.56422 31.9453 4.50496 31.727 4.50502 31.5047C4.50508 31.2825 4.56445 31.0642 4.67717 30.8718H27.5683L27.3049 30.4285H7.16994C6.9445 30.4282 6.72309 30.3696 6.52793 30.2583C6.33278 30.147 6.17076 29.9871 6.05814 29.7946C5.94552 29.6021 5.88626 29.3838 5.88632 29.1616C5.88638 28.9394 5.94575 28.7211 6.05847 28.5286H26.1805L25.9171 28.0853H8.57052C8.34508 28.0851 8.12366 28.0264 7.92851 27.9151C7.73336 27.8039 7.57134 27.644 7.45872 27.4515C7.3461 27.2589 7.28684 27.0406 7.2869 26.8184C7.28696 26.5962 7.34633 26.3779 7.45905 26.1854H10.2217L20.2634 9.24496C20.3755 9.05004 20.538 8.88791 20.7344 8.77511C20.9308 8.6623 21.154 8.60287 21.3813 8.60287C21.6086 8.60287 21.8318 8.6623 22.0282 8.77511C22.2246 8.88791 22.3871 9.05004 22.4992 9.24496L12.4446 26.1728H12.965L21.6383 11.5691C21.7504 11.3742 21.9129 11.2121 22.1093 11.0993C22.3057 10.9865 22.5289 10.927 22.7562 10.927C22.9835 10.927 23.2067 10.9865 23.4031 11.0993C23.5995 11.2121 23.762 11.3742 23.8741 11.5691L21.1115 16.2175L29.8105 30.8654C29.9245 31.0576 29.9852 31.276 29.9863 31.4986C29.9875 31.7212 29.9291 31.9402 29.8171 32.1335C29.705 32.3268 29.5433 32.4875 29.3481 32.5996C29.1529 32.7116 28.9313 32.7709 28.7054 32.7716ZM31.4616 32.7716L21.3749 15.7868L22.4928 13.887L32.5667 30.8654C32.6797 31.0557 32.7404 31.2718 32.7427 31.4923C32.745 31.7128 32.6888 31.9301 32.5798 32.1227C32.4708 32.3152 32.3126 32.4764 32.121 32.5902C31.9294 32.704 31.711 32.7666 31.4873 32.7716H31.4616ZM34.2178 32.7716L22.7498 13.4627L23.8741 11.5628L35.3421 30.8591C35.457 31.0526 35.5177 31.2728 35.5181 31.497C35.5184 31.7213 35.4583 31.9416 35.344 32.1354C35.2296 32.3293 35.0651 32.4897 34.8672 32.6004C34.6694 32.7111 34.4453 32.768 34.2178 32.7653V32.7716Z" fill="#333333"/>
<path d="M46.9008 22.9433L46.2156 26.4084H43.3333L46.3124 12.7621C46.4079 12.3255 46.6516 11.9347 47.0027 11.655C47.3538 11.3753 47.791 11.2236 48.2413 11.2253H50.215L53.194 26.4084H50.3118L49.649 22.9433H46.9008ZM49.3808 20.6159L48.8818 17.4389C48.7254 16.508 48.5244 14.9786 48.3829 13.9886H48.3158C48.1594 15.0008 47.9285 16.5597 47.7721 17.4389L47.1987 20.6159H49.3808Z" fill="#333333"/>
<path d="M63.8218 11.2253V26.4084H60.8428V13.7891H58.6085V17.801C58.6085 21.2957 58.385 24.4505 56.4561 25.9282C55.8691 26.3981 55.1398 26.6583 54.3856 26.667L53.7526 24.1624C54.1295 24.0735 54.4794 23.8961 54.7729 23.6452C55.6815 22.7216 55.8603 21.0297 55.8603 18.0817V11.2253H63.8218Z" fill="#333333"/>
<path d="M69.4076 11.2253V16.9218C69.8061 16.8547 70.21 16.825 70.6141 16.8331C73.5187 16.8331 75.3806 18.5915 75.3806 21.473C75.4111 22.1 75.314 22.7266 75.0952 23.3156C74.8765 23.9045 74.5404 24.4438 74.1071 24.9012C73.0644 25.9799 71.4036 26.5488 69.2214 26.5488C68.2944 26.562 67.3678 26.5003 66.4509 26.3641V11.2253H69.4076ZM69.4076 24.1106C69.594 24.1465 69.7839 24.1614 69.9736 24.155C71.4631 24.155 72.2675 23.0098 72.2675 21.6355C72.2675 20.2613 71.5227 19.1974 70.0853 19.1974C69.8576 19.1941 69.6303 19.2165 69.4076 19.2639V24.1106Z" fill="#333333"/>
<path d="M83.9603 10.6786V11.8312C86.7159 12.1932 88.8013 14.3358 88.8013 18.7023C88.8013 23.3496 86.6936 25.3075 83.9603 25.7139V26.9552H81.3313V25.7139C78.5607 25.3075 76.4903 23.3496 76.4903 18.7467C76.4903 14.3136 78.9629 12.1932 81.3313 11.8312V10.6786H83.9603ZM81.3536 13.9664C80.445 14.2324 79.4694 15.4441 79.4694 18.7836C79.4694 21.9384 80.4227 23.3422 81.3536 23.5417V13.9664ZM83.938 23.5713C84.921 23.3496 85.8297 22.1527 85.8297 18.7245C85.8297 15.2963 84.7795 14.1733 83.938 13.9959V23.5713Z" fill="#333333"/>
<path d="M92.756 22.9433L92.0708 26.4084H89.1886L92.5028 11.2253H96.0702L98.6322 24.3101C98.6829 24.5643 98.6761 24.8264 98.6123 25.0777C98.5485 25.3289 98.4293 25.563 98.2633 25.763C98.0973 25.963 97.8886 26.124 97.6524 26.2343C97.4161 26.3447 97.158 26.4016 96.8969 26.401H96.1521L95.4967 22.9359L92.756 22.9433ZM95.2286 20.6159L94.7296 17.4389C94.5732 16.508 94.3647 14.9786 94.2306 13.9886H94.1636C93.9997 15.0008 93.7763 16.5597 93.6199 17.4389L93.0464 20.6159H95.2286Z" fill="#333333"/>
<path d="M45.9475 30.7897V31.632H44.3239V32.6959C44.4567 32.6726 44.5912 32.6603 44.7261 32.659C45.1284 32.6497 45.5203 32.7863 45.8283 33.0432C45.9946 33.1896 46.1257 33.3711 46.2121 33.5744C46.2984 33.7777 46.3378 33.9976 46.3273 34.2179C46.3379 34.4324 46.3051 34.6468 46.2309 34.8486C46.1567 35.0503 46.0426 35.2353 45.8953 35.3927C45.6751 35.5888 45.4169 35.7384 45.1365 35.8324C44.8561 35.9263 44.5593 35.9628 44.2643 35.9394C43.9526 35.9449 43.641 35.9226 43.3333 35.8729V30.7897H45.9475ZM44.3313 35.0971C44.4636 35.1259 44.6011 35.1213 44.7312 35.0839C44.8613 35.0465 44.9798 34.9774 45.0761 34.8829C45.2039 34.7121 45.2719 34.5045 45.2697 34.2918C45.2738 34.0776 45.2028 33.8686 45.0686 33.7007C45.0009 33.6282 44.9192 33.57 44.8284 33.5293C44.7376 33.4887 44.6395 33.4666 44.5399 33.4643C44.4631 33.4559 44.3857 33.4559 44.309 33.4643L44.3313 35.0971Z" fill="#333333"/>
<path d="M47.8094 30.7897V31.9127C47.8094 32.8511 47.7498 33.7229 47.7125 34.2549C47.8541 33.8189 48.1147 33.1466 48.2711 32.7772L49.0159 30.8045H49.917V35.8877H49.068V34.7277C49.068 33.7081 49.068 32.9545 49.135 32.4447C48.9876 32.946 48.8136 33.4393 48.6137 33.9224L47.8689 35.8581H46.9305V30.7897H47.8094Z" fill="#333333"/>
<path d="M50.5874 31.0187C50.9335 30.8211 51.3276 30.7214 51.7268 30.7306C51.9057 30.7074 52.0875 30.7225 52.26 30.7747C52.4325 30.8268 52.5918 30.915 52.7272 31.0332C52.8626 31.1515 52.971 31.297 53.0451 31.4602C53.1192 31.6233 53.1572 31.8003 53.1568 31.9792C53.1673 32.2467 53.0872 32.5099 52.9293 32.7269C52.7713 32.9438 52.5446 33.102 52.2854 33.1761C52.5833 33.2251 52.8522 33.3824 53.0394 33.6173C53.2267 33.8523 53.319 34.1481 53.2983 34.4469C53.2902 34.6627 53.2377 34.8744 53.144 35.0693C53.0502 35.2641 52.9173 35.4378 52.7533 35.5797C52.5893 35.7216 52.3978 35.8287 52.1905 35.8943C51.9833 35.96 51.7646 35.9829 51.5481 35.9616C51.1873 35.9666 50.8304 35.8881 50.5054 35.7325L50.6544 34.9272C50.899 35.0589 51.173 35.1275 51.4513 35.1267C51.5546 35.1359 51.6587 35.1237 51.7569 35.0907C51.8552 35.0578 51.9454 35.0048 52.0218 34.9353C52.0982 34.8657 52.1592 34.7811 52.2007 34.6868C52.2422 34.5926 52.2635 34.4907 52.2631 34.3878C52.2631 33.8189 51.7939 33.5973 51.2576 33.5973H51.1087V32.8584H51.213C51.6598 32.8584 52.1216 32.6368 52.1216 32.1787C52.1267 32.0949 52.1131 32.011 52.0817 31.9331C52.0503 31.8551 52.0019 31.785 51.9399 31.7278C51.878 31.6706 51.8041 31.6277 51.7234 31.6022C51.6428 31.5767 51.5575 31.5692 51.4736 31.5803C51.2107 31.5852 50.9537 31.6591 50.7289 31.7945L50.5874 31.0187Z" fill="#333333"/>
<path d="M54.907 30.7897V32.8289H55.9497V30.7897H56.9476V35.8729H55.9497V33.7451H54.907V35.8729H53.909V30.7897H54.907Z" fill="#333333"/>
<path d="M59.9937 33.6416H58.8244V35.0159H60.1427V35.8729H57.8264V30.7897H60.0608V31.6468H58.8244V32.8215H59.9937V33.6416Z" fill="#333333"/>
<path d="M63.2856 35.799C63.0477 35.8877 62.7949 35.9303 62.5409 35.9246C61.2226 35.9246 60.597 34.8607 60.597 33.4052C60.597 31.4916 61.6695 30.7454 62.6675 30.7454C62.906 30.7297 63.1447 30.7755 63.3601 30.8784L63.1739 31.6985C63.0297 31.6311 62.8715 31.5982 62.7122 31.6024C62.1461 31.6024 61.6322 32.0901 61.6322 33.3461C61.6322 34.6021 62.1014 35.038 62.7122 35.038C62.8736 35.0344 63.0339 35.0096 63.1888 34.9641L63.2856 35.799Z" fill="#333333"/>
<path d="M65.6018 31.6985H64.6932V30.7897H67.5084V31.6985H66.5998V35.8729H65.6018V31.6985Z" fill="#333333"/>
<path d="M70.2343 33.6416H69.0725V35.0159H70.3907V35.8729H68.0745V30.7897H70.3088V31.6468H69.0725V32.8215H70.2343V33.6416Z" fill="#333333"/>
<path d="M72.692 35.8729L72.3717 34.942C72.2675 34.6464 72.1781 34.3583 72.0962 34.0332C72.0143 34.3583 71.9323 34.6686 71.8579 34.9567L71.5823 35.8729H70.5992L71.5525 33.2722L70.6365 30.7897H71.6717L71.9696 31.7354C72.0515 31.994 72.126 32.26 72.2004 32.5481C72.2824 32.2378 72.3568 31.994 72.4239 31.7132L72.6845 30.7897H73.6751L72.7218 33.3165L73.7346 35.8729H72.692Z" fill="#333333"/>
<path d="M75.1348 30.7897V32.8289H76.1924V30.7897H77.1904V35.8729H76.1924V33.7451H75.1497V35.8729H74.1518V30.7897H75.1348Z" fill="#333333"/>
<path d="M81.0855 33.2426C81.0855 35.1562 80.4003 35.9394 79.4247 35.9394C78.2628 35.9394 77.8085 34.7129 77.8085 33.3165C77.8085 31.9201 78.3597 30.7306 79.5066 30.7306C80.6535 30.7306 81.0855 32.0827 81.0855 33.2426ZM78.8512 33.3313C78.8512 34.4839 79.0672 35.0749 79.4694 35.0749C79.8715 35.0749 80.0577 34.3361 80.0577 33.287C80.0577 32.393 79.9237 31.5876 79.4619 31.5876C79.0002 31.5876 78.8438 32.2378 78.8438 33.3313H78.8512Z" fill="#333333"/>
<path d="M84.5338 30.7897V35.8729H83.5358V31.6468H82.791V32.9914C82.791 34.1662 82.7165 35.2079 82.0463 35.7104C81.8498 35.8679 81.6062 35.9563 81.3536 35.9616L81.1376 35.1193C81.2643 35.0917 81.382 35.0333 81.4802 34.9494C81.7856 34.639 81.8452 34.0701 81.8452 33.0801V30.7897H84.5338Z" fill="#333333"/>
<path d="M88.4512 33.2426C88.4512 35.1562 87.766 35.9394 86.7904 35.9394C85.6211 35.9394 85.1668 34.7129 85.1668 33.3165C85.1668 31.9201 85.7254 30.7306 86.8649 30.7306C88.0043 30.7306 88.4512 32.0827 88.4512 33.2426ZM86.2169 33.3313C86.2169 34.4839 86.4404 35.0749 86.8425 35.0749C87.2447 35.0749 87.4309 34.3361 87.4309 33.287C87.4309 32.393 87.2894 31.5876 86.8351 31.5876C86.3808 31.5876 86.202 32.2378 86.202 33.3313H86.2169Z" fill="#333333"/>
<path d="M91.4378 30.7897V31.6468H90.0748V35.8729H89.0843V30.7897H91.4378Z" fill="#333333"/>
<path d="M92.8528 30.7897V31.9127C92.8528 32.8511 92.7932 33.7229 92.756 34.2549C92.9049 33.8189 93.1582 33.1466 93.3146 32.7772L94.0593 30.8045H94.9679V35.8877H94.0891V34.7277C94.0891 33.7081 94.1263 32.9545 94.1561 32.4447C94.037 32.8954 93.8061 33.5086 93.6422 33.9224L92.8975 35.8581H91.974V30.7897H92.8528Z" fill="#333333"/>
<path d="M96.7628 30.7897V31.9127C96.7628 32.8511 96.7032 33.7229 96.666 34.2549C96.8075 33.8189 97.0682 33.1466 97.2171 32.7772L97.9619 30.8045H98.8705V35.8877H98.014V34.7277C98.014 33.7081 98.0587 32.9545 98.0885 32.4447C97.9619 32.8954 97.7385 33.5086 97.5672 33.9224L96.8224 35.8581H95.8989V30.7897H96.7628Z" fill="#333333"/>
</svg>
