<svg width="68" height="68" viewBox="0 0 68 68" xmlns="http://www.w3.org/2000/svg">
<path d="M34.0001 34.0001C29.4167 34.0001 25.4931 32.3681 22.2292 29.1042C18.9654 25.8404 17.3334 21.9167 17.3334 17.3334C17.3334 12.7501 18.9654 8.82647 22.2292 5.56258C25.4931 2.29869 29.4167 0.666748 34.0001 0.666748C38.5834 0.666748 42.507 2.29869 45.7709 5.56258C49.0348 8.82647 50.6668 12.7501 50.6668 17.3334C50.6668 21.9167 49.0348 25.8404 45.7709 29.1042C42.507 32.3681 38.5834 34.0001 34.0001 34.0001ZM0.666748 67.3334V55.6668C0.666748 53.3056 1.27508 51.1348 2.49175 49.1543C3.70564 47.1765 5.31953 45.6668 7.33342 44.6251C11.639 42.4723 16.014 40.857 20.4584 39.7793C24.9029 38.7043 29.4167 38.1668 34.0001 38.1668C38.5834 38.1668 43.0973 38.7043 47.5418 39.7793C51.9862 40.857 56.3612 42.4723 60.6668 44.6251C62.6806 45.6668 64.2945 47.1765 65.5084 49.1543C66.7251 51.1348 67.3334 53.3056 67.3334 55.6668V67.3334H0.666748Z" />
</svg>
