<svg width="16" height="16" viewBox="0 0 16 16" xmlns="http://www.w3.org/2000/svg">
<path d="M11.3333 15.3334V14.3334C12.1667 14.3334 12.8751 14.0419 13.4587 13.4587C14.0418 12.8752 14.3333 12.1667 14.3333 11.3334H15.3333C15.3333 12.4445 14.9444 13.389 14.1667 14.1667C13.3889 14.9445 12.4444 15.3334 11.3333 15.3334ZM0.666656 4.66675C0.666656 3.55564 1.05555 2.61119 1.83332 1.83341C2.6111 1.05564 3.55555 0.666748 4.66666 0.666748V1.66675C3.83332 1.66675 3.12488 1.9583 2.54132 2.54141C1.95821 3.12497 1.66666 3.83341 1.66666 4.66675H0.666656ZM2.26666 13.7334C1.73332 13.2001 1.33332 12.5945 1.06666 11.9167C0.79999 11.239 0.666656 10.5472 0.666656 9.84141C0.666656 9.13608 0.79999 8.44453 1.06666 7.76675C1.33332 7.08897 1.73332 6.48341 2.26666 5.95008L5.33332 2.88341C5.48888 2.72786 5.68599 2.64453 5.92466 2.63341C6.16377 2.6223 6.36666 2.70008 6.53332 2.86675C6.68888 3.0223 6.76666 3.21941 6.76666 3.45808C6.76666 3.69719 6.68888 3.89453 6.53332 4.05008L3.81666 6.76675C4.2611 7.1223 4.53332 7.59719 4.63332 8.19141C4.73332 8.78608 4.53888 9.33341 4.04999 9.83341L4.51666 10.3001C4.97221 9.87786 5.23066 9.31675 5.29199 8.61675C5.35288 7.91675 5.16666 7.30564 4.73332 6.78341L9.81666 1.70008C9.98332 1.53341 10.1807 1.45008 10.4087 1.45008C10.6362 1.45008 10.8333 1.53341 11 1.70008C11.1555 1.85564 11.2389 2.04719 11.25 2.27475C11.2611 2.50275 11.1778 2.70564 11 2.88341L7.34999 6.53341L7.79999 7.00008L12.4 2.40008C12.5555 2.24453 12.7529 2.16675 12.992 2.16675C13.2307 2.16675 13.4278 2.24453 13.5833 2.40008C13.7389 2.55564 13.8167 2.75275 13.8167 2.99141C13.8167 3.23053 13.7389 3.42786 13.5833 3.58341L8.98332 8.18341L9.46666 8.65008L13.35 4.76675C13.5167 4.60008 13.714 4.51675 13.942 4.51675C14.1695 4.51675 14.3667 4.60008 14.5333 4.76675C14.6889 4.9223 14.7667 5.11941 14.7667 5.35808C14.7667 5.59719 14.6889 5.79453 14.5333 5.95008L10.1667 10.3001L10.6333 10.7834L13.5833 7.83341C13.7611 7.65564 13.964 7.5723 14.192 7.58341C14.4195 7.59453 14.6111 7.67786 14.7667 7.83341C14.9222 7.98897 15.0055 8.18075 15.0167 8.40875C15.0278 8.6363 14.9444 8.83897 14.7667 9.01675L10.05 13.7334C9.51666 14.2667 8.9111 14.6667 8.23332 14.9334C7.55555 15.2001 6.86399 15.3334 6.15866 15.3334C5.45288 15.3334 4.7611 15.2001 4.08332 14.9334C3.40555 14.6667 2.79999 14.2667 2.26666 13.7334Z" />
</svg>
